<svg version="1.1" id="Layer_1" xmlns="http://www.w3.org/2000/svg" xmlns:xlink="http://www.w3.org/1999/xlink" x="0px" y="0px"
	 width="100%" viewBox="0 0 1024 672" enable-background="new 0 0 1024 672" xml:space="preserve">
<path fill="#000000" opacity="1.000000" stroke="none" 
	d="
M492.601318,357.610138 
	C484.087952,356.005341 476.548645,352.962036 469.259186,349.208649 
	C466.553650,347.815552 465.002838,345.809235 464.485413,342.685272 
	C463.179901,334.802979 463.913269,326.985596 463.848145,319.075592 
	C466.915680,319.166962 467.130646,321.177582 467.997101,322.449615 
	C476.078522,334.314148 485.759491,344.117859 500.357483,347.532349 
	C525.951355,353.518799 549.318359,342.919006 559.450012,318.426086 
	C572.351501,287.237213 571.355286,256.017975 554.046631,226.283051 
	C548.921936,217.479187 541.509766,210.645309 532.226929,206.318069 
	C525.942749,203.388672 530.399048,199.707870 531.003723,196.353653 
	C531.721130,192.373932 534.366943,192.796280 537.460510,193.726379 
	C572.035950,204.121674 595.081299,235.245132 595.361145,271.516968 
	C595.521179,292.255035 591.208008,311.583008 578.564392,328.385620 
	C570.297974,339.371185 559.671753,347.548859 546.880127,352.797974 
	C545.526428,353.353516 543.959839,353.563690 542.686462,355.314667 
	C546.697144,360.657440 551.779907,365.156097 556.657532,369.817841 
	C565.467102,378.237427 574.667603,386.182434 585.510254,391.955322 
	C596.379639,397.742401 607.791077,399.540375 619.834045,396.432312 
	C620.929321,396.149628 622.040649,395.524567 623.214172,396.460907 
	C623.328491,398.942047 621.191528,399.695038 619.652649,400.769196 
	C607.075256,409.548218 593.229919,410.879822 578.577454,407.784271 
	C560.279236,403.918518 545.794434,393.515106 532.404724,381.179352 
	C526.151733,375.418549 520.044922,369.502228 514.576355,362.982574 
	C512.498474,360.505402 510.214355,359.097656 506.863373,359.313629 
	C502.173676,359.615906 497.579132,358.694305 492.601318,357.610138 
z"/>
<path fill="#000000" opacity="1.000000" stroke="none" 
	d="
M692.080444,496.997101 
	C686.879211,504.303925 679.478333,508.083679 671.419006,511.768127 
	C681.395203,521.784180 691.564636,529.228271 705.795898,524.453735 
	C706.454163,526.049927 706.456726,526.682068 705.901367,527.201660 
	C698.099548,534.501404 686.317261,536.249390 676.609192,531.613708 
	C669.270569,528.109436 663.500732,522.552734 657.633301,517.143982 
	C655.232422,514.930786 652.683167,513.605774 649.371704,513.015808 
	C628.480408,509.293945 614.516357,491.837860 615.494080,470.245667 
	C616.353577,451.265320 630.828186,435.492767 651.086365,432.543365 
	C675.808289,428.944092 696.649353,444.263245 699.886353,468.923218 
	C701.211426,479.018524 698.120972,488.342133 692.080444,496.997101 
M673.262024,444.237213 
	C657.195923,430.207764 638.370728,435.551788 632.720337,456.095673 
	C629.705627,467.056793 630.127197,478.138367 634.408691,488.908569 
	C636.550964,494.297638 639.790710,498.837708 644.164978,502.574768 
	C655.466187,512.229980 673.059570,508.883789 680.052856,495.783081 
	C688.112061,480.685333 685.310120,457.926392 673.262024,444.237213 
z"/>
<path fill="#000000" opacity="1.000000" stroke="none" 
	d="
M488.302979,242.328156 
	C498.890015,228.155518 509.079437,214.122238 516.602234,198.435440 
	C525.760498,179.338089 530.193054,159.508209 524.376221,138.420364 
	C522.708130,132.372849 519.751526,126.806564 516.985413,120.433670 
	C520.384583,120.748329 521.062866,122.977837 522.035339,124.665726 
	C533.698242,144.908783 535.011414,166.261032 528.406006,188.292862 
	C522.147705,209.166870 510.587769,227.223404 498.022278,244.761566 
	C487.562866,259.360107 476.345398,273.469727 468.581909,289.859222 
	C452.777008,323.224945 456.338074,354.377991 478.926819,383.466736 
	C479.945343,384.778351 480.930481,386.117554 481.879486,387.479889 
	C482.028442,387.693695 481.900360,388.100494 481.900360,388.782837 
	C479.575958,388.948914 478.514099,387.066650 477.249969,385.785767 
	C451.164551,359.354279 444.621368,319.003204 460.594116,285.386932 
	C467.944855,269.916565 477.959137,256.251312 488.302979,242.328156 
z"/>
<path fill="#000000" opacity="1.000000" stroke="none" 
	d="
M497.883026,204.915558 
	C507.480255,190.527237 513.786926,175.226303 515.411438,158.292343 
	C517.162292,140.040955 511.815918,123.744003 500.812805,109.204170 
	C499.809204,107.877968 498.841553,106.523109 497.904938,105.149033 
	C497.744720,104.913979 497.826477,104.513992 497.767029,103.872604 
	C500.027100,103.354378 500.946381,105.169350 501.998077,106.398422 
	C518.988342,126.253647 524.540466,149.033951 518.885437,174.451401 
	C513.950012,196.634354 501.863098,215.168823 488.131561,232.737045 
	C476.132721,248.088470 463.436401,262.916077 454.289673,280.302307 
	C440.501373,306.511261 439.354706,333.021149 452.064636,359.958649 
	C452.795471,361.507629 454.226532,362.951355 453.417877,365.287689 
	C450.553192,364.128418 449.662048,361.515289 448.485199,359.287018 
	C432.522034,329.062347 433.781860,299.319611 450.653503,269.790192 
	C459.724487,253.913818 471.677063,240.229828 482.699951,225.821487 
	C487.858643,219.078384 492.704834,212.096176 497.883026,204.915558 
z"/>
<path fill="#000000" opacity="1.000000" stroke="none" 
	d="
M332.051880,471.021667 
	C323.810089,464.794495 320.277008,457.176422 323.215973,447.225891 
	C325.700470,438.814178 334.206177,432.789581 345.159058,431.823792 
	C351.762787,431.241547 358.066284,432.761536 364.201202,435.061035 
	C365.440460,435.525513 366.899323,436.105957 367.014069,437.615875 
	C367.358307,442.145050 367.786499,446.705536 366.725220,451.249939 
	C363.634491,450.969818 363.993469,448.643921 363.350983,447.121918 
	C359.860107,438.851837 350.608154,434.341461 342.451935,436.921021 
	C338.088562,438.301025 335.319000,441.120758 334.382477,445.587891 
	C333.448120,450.044617 334.758026,453.783600 338.253937,456.774170 
	C341.591156,459.628937 345.621124,461.293488 349.392181,463.400299 
	C352.589691,465.186646 355.910828,466.758392 359.060760,468.621948 
	C370.266235,475.251404 373.892273,482.112213 372.141541,493.086761 
	C370.649506,502.439972 362.573792,510.462311 351.926300,512.889526 
	C343.397888,514.833740 335.107758,513.880005 327.001648,510.552277 
	C322.777466,508.818176 320.475037,506.133606 320.966003,501.421478 
	C321.449738,496.778870 320.209259,491.975677 321.740570,487.086426 
	C324.703491,488.726562 324.613007,491.300079 325.291626,493.420227 
	C328.813690,504.424194 336.133789,509.704102 346.785492,508.817993 
	C353.188904,508.285309 358.063934,504.345337 359.478333,498.559723 
	C361.004425,492.317078 359.103912,486.778717 353.568176,483.372925 
	C346.629791,479.104095 339.426270,475.266296 332.051880,471.021667 
z"/>
<path fill="#000000" opacity="1.000000" stroke="none" 
	d="
M517.483032,450.478333 
	C518.088257,449.439911 518.526245,448.730347 518.917053,447.995697 
	C523.105286,440.123352 523.048401,439.785400 515.954224,433.961853 
	C524.235657,433.961853 531.742859,433.961853 539.233887,433.961853 
	C539.233887,434.662048 539.305603,435.229248 539.223694,435.252411 
	C532.547241,437.137939 529.291138,442.603180 525.892761,447.923859 
	C520.514404,456.344604 515.148682,464.773560 509.737823,473.173401 
	C508.065155,475.769989 507.208069,478.493500 507.286469,481.639343 
	C507.435791,487.632660 507.436737,493.634033 507.315796,499.628357 
	C507.218842,504.433899 508.254730,508.275665 513.786987,509.216797 
	C514.235779,509.293121 514.669189,509.679321 515.022400,510.013794 
	C515.230408,510.210754 515.266174,510.589600 515.619568,511.516815 
	C505.189606,511.516815 495.001892,511.516815 484.899384,511.516815 
	C484.431824,509.709564 485.478394,509.180939 486.392853,509.070251 
	C492.071411,508.382965 492.917603,504.687775 492.956268,499.788605 
	C493.131836,477.557434 493.218964,477.558105 481.620880,458.822540 
	C479.780151,455.849030 477.918030,452.888519 476.100800,449.900726 
	C472.311279,443.670135 469.146851,436.809326 460.128662,435.636200 
	C463.721008,433.287811 488.220642,432.698669 492.101440,434.354095 
	C492.091125,434.513580 492.145966,434.749207 492.061249,434.821655 
	C486.180542,439.850342 486.133270,439.877380 490.492981,447.057343 
	C495.044739,454.553619 499.698029,461.988281 504.713928,470.108826 
	C509.831268,463.633820 513.443298,457.133301 517.483032,450.478333 
z"/>
<path fill="#000000" opacity="1.000000" stroke="none" 
	d="
M411.821167,482.000000 
	C411.851654,469.515442 411.767334,457.528931 411.974609,445.547455 
	C412.043762,441.551666 410.829254,439.496399 406.607941,439.935486 
	C406.114868,439.986755 405.609100,439.900757 405.111115,439.922363 
	C396.648804,440.289093 386.727325,437.082031 382.715515,449.547546 
	C381.519989,443.018494 383.065033,437.294281 383.844299,431.036285 
	C395.772522,435.606812 407.794952,433.607697 419.605164,433.559967 
	C431.276978,433.512848 443.151520,435.591217 455.178711,431.594818 
	C456.585663,437.324951 455.866669,442.996735 455.224182,448.668243 
	C450.942688,438.285583 442.074615,440.115112 434.015839,440.024994 
	C431.717926,439.999298 429.419464,440.021057 427.413239,440.021057 
	C425.898407,441.849335 426.341431,443.585663 426.338531,445.194275 
	C426.306274,463.171173 426.456482,481.149750 426.241943,499.124115 
	C426.178284,504.460327 427.237823,508.331451 433.175720,509.295380 
	C433.694794,509.379639 434.112701,510.087128 435.591187,511.416412 
	C424.124908,511.416412 413.818817,511.416412 403.547363,511.416412 
	C403.127747,509.760925 404.208588,509.238617 405.089386,509.116760 
	C410.873688,508.316589 412.116577,504.671082 411.840637,499.474640 
	C411.541016,493.831970 411.803070,488.159454 411.821167,482.000000 
z"/>
<path fill="#000000" opacity="1.000000" stroke="none" 
	d="
M567.783020,433.680359 
	C571.091431,433.923920 574.063843,433.076752 576.837341,434.129852 
	C576.477966,436.243256 575.138550,436.157166 574.066772,436.464294 
	C570.727844,437.421326 569.174133,439.657745 569.172852,443.103180 
	C569.165466,462.590332 569.176453,482.077667 569.081055,501.564453 
	C569.063538,505.144714 570.788269,506.154999 574.028687,506.078491 
	C580.022156,505.936890 586.024109,505.843262 592.015381,506.001648 
	C598.236633,506.166138 602.476074,503.358826 605.310303,498.026459 
	C606.054443,496.626495 606.494690,494.947784 608.996826,493.909454 
	C609.390259,500.425385 607.364746,505.935150 605.624268,511.445801 
	C605.176147,512.864624 603.526123,512.696289 602.126770,512.619141 
	C585.318848,511.692841 568.493958,512.365723 551.678955,512.094482 
	C549.716125,512.062805 547.314392,513.055786 545.878540,510.668274 
	C546.061890,510.269165 546.155945,509.748840 546.336365,509.716919 
	C554.060303,508.350708 553.934265,502.666199 554.208008,496.569733 
	C554.881104,481.580048 554.473206,466.595490 554.603760,451.610443 
	C554.663635,444.743591 556.240417,437.009796 545.456604,435.328918 
	C545.779053,434.780701 546.101562,434.232513 546.424011,433.684296 
	C553.387634,433.684296 560.351196,433.684296 567.783020,433.680359 
z"/>
<path fill="#000000" opacity="1.000000" stroke="none" 
	d="
M448.848602,237.823654 
	C438.331848,251.322983 430.652649,265.853027 427.262604,283.517853 
	C415.020874,260.649811 444.422119,202.830566 470.627441,198.681778 
	C455.658234,216.357208 439.152313,231.625549 433.856842,254.116516 
	C442.760437,232.665268 459.769806,217.220657 473.769501,199.525909 
	C483.330872,187.440979 491.627899,174.574478 494.234558,158.901367 
	C494.977600,154.433563 494.959198,149.945099 494.992462,145.448303 
	C495.004242,143.854431 494.599091,142.177872 495.987488,140.115204 
	C498.013367,143.198761 498.125153,146.202072 498.266022,149.199036 
	C499.102539,166.998093 492.664185,182.437408 482.892914,196.821747 
	C473.772461,210.248032 461.866150,221.337555 451.832947,233.995819 
	C450.901764,235.170609 449.987152,236.358490 448.848602,237.823654 
z"/>
<path fill="#000000" opacity="1.000000" stroke="none" 
	d="
M483.413910,205.420837 
	C493.632568,191.198410 501.917816,176.519547 504.170013,159.100922 
	C505.482056,148.953217 503.986542,139.215866 500.631165,129.650162 
	C499.885406,127.524117 498.386597,125.612518 499.037781,122.951202 
	C503.359589,127.875977 505.913025,133.759201 507.252319,140.119736 
	C511.634216,160.930054 506.843353,180.081223 496.241669,198.057755 
	C486.873077,213.943512 474.269653,227.322906 462.529053,241.378708 
	C449.414276,257.079712 437.602661,273.548218 433.773407,294.323914 
	C432.396057,301.796783 431.874146,309.333679 432.124695,317.007568 
	C429.011292,313.669525 428.958832,309.534088 428.812225,305.559174 
	C428.132904,287.140961 433.683380,270.473541 443.212555,254.913010 
	C452.333649,240.018921 464.852142,227.902634 475.879456,214.567123 
	C478.320496,211.615173 480.760345,208.662231 483.413910,205.420837 
z"/>
</svg>